<!-- Generator: Adobe Illustrator 21.0.1, SVG Export Plug-In  -->
<svg version="1.1"
	 xmlns="http://www.w3.org/2000/svg" xmlns:xlink="http://www.w3.org/1999/xlink" xmlns:a="http://ns.adobe.com/AdobeSVGViewerExtensions/3.0/"
	 x="0px" y="0px" width="450.1px" height="84px" viewBox="0 0 450.1 84" style="enable-background:new 0 0 450.1 84;"
	 xml:space="preserve">
<defs>
</defs>
<g>
	<g>
		<path d="M232.1,84l-24-46.7L183.9,84L150.3,0.1h19.5L186,43.7L208.1,0l22.1,43.7l16.5-43.5H266L232.1,84z"/>
		<path d="M296,34.2h40.1V50H296v34h-18.3V0h63.6v15.7H296V34.2z"/>
		<path d="M353.1,84V0h18.1v84H353.1z"/>
		<path d="M425.7,15.7V84h-18.3V15.7H383V0h67.1v15.7H425.7z"/>
		<path d="M72.3,84c-6.8-9-14.5-19.1-21.7-28.1C61,51.3,67.7,41.4,67.7,29.2C67.7,11.9,55.4,0,37.3,0H0v84h18V58.6v-0.9V42v-1.1
			V15.7h19.3c10.7,0,12.3,9.1,12.3,13.4C49.6,37.9,43,42,37.3,42h-6.9v15.8C37.3,67,43.7,75.4,50.5,84H72.3z"/>
	</g>
</g>
</svg>
