<!-- Generator: Adobe Illustrator 21.0.1, SVG Export Plug-In  -->
<svg version="1.1"
	 xmlns="http://www.w3.org/2000/svg" xmlns:xlink="http://www.w3.org/1999/xlink" xmlns:a="http://ns.adobe.com/AdobeSVGViewerExtensions/3.0/"
	 x="0px" y="0px" width="450.1px" height="84.3px" viewBox="0 0 450.1 84.3" style="enable-background:new 0 0 450.1 84.3;"
	 xml:space="preserve">
<style type="text/css">
	.st0{fill:none;stroke:#000000;stroke-width:0.8063;stroke-miterlimit:10;}
	.st1{fill:#01A0B2;}
	.st2{fill:#DF3C4B;}
	.st3{fill:#E18426;}
</style>
<defs>
</defs>
<g>
	<g>
		<g>
			<line class="st0" x1="122.2" y1="11.9" x2="86.8" y2="72.5"/>
			<line class="st0" x1="126.7" y1="15.2" x2="84.9" y2="71.7"/>
			<line class="st0" x1="123" y1="11.8" x2="82.5" y2="69.1"/>
			<line class="st0" x1="120.9" y1="10.7" x2="80.4" y2="68.1"/>
			<line class="st0" x1="118.6" y1="9.1" x2="87" y2="71.8"/>
			<line class="st0" x1="124.7" y1="13" x2="80.8" y2="67.8"/>
			<line class="st0" x1="120" y1="10.7" x2="89" y2="73.7"/>
			<line class="st0" x1="124.7" y1="13.8" x2="87" y2="73"/>
			<line class="st0" x1="120.9" y1="10.6" x2="84.5" y2="70.6"/>
		</g>
		<g>
			<line class="st0" x1="121.7" y1="13.1" x2="157" y2="73.8"/>
			<line class="st0" x1="118.9" y1="15.3" x2="157.2" y2="74.2"/>
			<line class="st0" x1="123.1" y1="11.5" x2="159" y2="71.9"/>
			<line class="st0" x1="124.7" y1="11.5" x2="160.6" y2="71.9"/>
			<line class="st0" x1="123.8" y1="12" x2="154.9" y2="74.9"/>
			<line class="st0" x1="128.5" y1="10.2" x2="159.6" y2="73.2"/>
			<line class="st0" x1="122.3" y1="13.2" x2="153.6" y2="76.1"/>
			<line class="st0" x1="126.8" y1="9.8" x2="155.6" y2="73.9"/>
			<line class="st0" x1="119.3" y1="14.4" x2="163" y2="69.3"/>
		</g>
		<g>
			<line class="st0" x1="155" y1="75.2" x2="84.9" y2="70.8"/>
			<line class="st0" x1="155.4" y1="68.9" x2="85.2" y2="71"/>
			<line class="st0" x1="154.8" y1="78.9" x2="84.7" y2="74.6"/>
			<line class="st0" x1="154.6" y1="74.3" x2="84.6" y2="68.2"/>
			<line class="st0" x1="154.7" y1="70.9" x2="84.5" y2="71.5"/>
			<line class="st0" x1="155.5" y1="74.5" x2="85.4" y2="76.3"/>
			<line class="st0" x1="155.1" y1="72.9" x2="84.9" y2="73.1"/>
			<line class="st0" x1="155.1" y1="79.8" x2="85.4" y2="71.1"/>
			<line class="st0" x1="155.1" y1="71.4" x2="85.4" y2="79.4"/>
			<line class="st0" x1="155.1" y1="75.9" x2="84.9" y2="76.7"/>
			<line class="st0" x1="155.1" y1="76.8" x2="84.9" y2="77.6"/>
		</g>
		<path class="st1" d="M133.7,12.2c0,6.4-5.1,11.5-11.5,11.5c-6.4,0-11.5-5.2-11.5-11.5c0-3.8,2.2-7.5,5-10
			C122.6-4,133.7,4.3,133.7,12.2z"/>
		<path class="st2" d="M98.4,72.7c0,6.4-5.1,11.5-11.5,11.5c-6.4,0-11.5-5.2-11.5-11.5c0-5.8,4.9-11.6,10.9-12
			C92.5,60.4,98.4,66.6,98.4,72.7z"/>
		<path class="st3" d="M168.8,72.7c0,6.4-5.1,11.5-11.5,11.5c-6.4,0-11.5-5.1-11.5-11.5C145.8,58.4,168.8,58.4,168.8,72.7z"/>
	</g>
	<g>
		<g>
			<path d="M232.1,84.3l-24-46.7l-24.2,46.7L150.3,0.4h19.5L186,43.9l22.1-43.7l22.1,43.7l16.5-43.5H266L232.1,84.3z"/>
			<path d="M296,34.5h40.1v15.7H296v34h-18.3v-84h63.6V16H296V34.5z"/>
			<path d="M353.1,84.3v-84h18.1v84H353.1z"/>
			<path d="M425.7,16v68.2h-18.3V16H383V0.3h67.1V16H425.7z"/>
			<path d="M72.3,84.3c-6.8-9-14.5-19.1-21.7-28.1C61,51.6,67.7,41.6,67.7,29.5c0-17.2-12.3-29.2-30.3-29.2H0v84h18V58.9v-0.9V42.3
				v-1.1V16h19.3c10.7,0,12.3,9.1,12.3,13.4c0,8.7-6.7,12.9-12.3,12.9h-6.9v15.8c6.9,9.2,13.2,17.6,20.1,26.2H72.3z"/>
		</g>
	</g>
</g>
</svg>
