<svg xmlns="http://www.w3.org/2000/svg" viewBox="0 0 450.07 84.26"><title>logo</title><g id="Layer_2" data-name="Layer 2"><g id="Layer_1-2" data-name="Layer 1"><line x1="122.17" y1="11.86" x2="86.84" y2="72.51" style="fill:none;stroke:#000;stroke-miterlimit:10;stroke-width:0.806326px"/><line x1="126.65" y1="15.24" x2="84.93" y2="71.7" style="fill:none;stroke:#000;stroke-miterlimit:10;stroke-width:0.806326px"/><line x1="122.99" y1="11.76" x2="82.54" y2="69.12" style="fill:none;stroke:#000;stroke-miterlimit:10;stroke-width:0.806326px"/><line x1="120.85" y1="10.72" x2="80.39" y2="68.08" style="fill:none;stroke:#000;stroke-miterlimit:10;stroke-width:0.806326px"/><line x1="118.57" y1="9.11" x2="86.95" y2="71.78" style="fill:none;stroke:#000;stroke-miterlimit:10;stroke-width:0.806326px"/><line x1="124.7" y1="13.04" x2="80.83" y2="67.84" style="fill:none;stroke:#000;stroke-miterlimit:10;stroke-width:0.806326px"/><line x1="120.04" y1="10.72" x2="88.98" y2="73.67" style="fill:none;stroke:#000;stroke-miterlimit:10;stroke-width:0.806326px"/><line x1="124.74" y1="13.79" x2="87.02" y2="72.98" style="fill:none;stroke:#000;stroke-miterlimit:10;stroke-width:0.806326px"/><line x1="120.85" y1="10.56" x2="84.45" y2="70.58" style="fill:none;stroke:#000;stroke-miterlimit:10;stroke-width:0.806326px"/><line x1="121.67" y1="13.13" x2="157" y2="73.78" style="fill:none;stroke:#000;stroke-miterlimit:10;stroke-width:0.806326px"/><line x1="118.91" y1="15.32" x2="157.18" y2="74.16" style="fill:none;stroke:#000;stroke-miterlimit:10;stroke-width:0.806326px"/><line x1="123.13" y1="11.55" x2="159.01" y2="71.88" style="fill:none;stroke:#000;stroke-miterlimit:10;stroke-width:0.806326px"/><line x1="124.74" y1="11.55" x2="160.62" y2="71.88" style="fill:none;stroke:#000;stroke-miterlimit:10;stroke-width:0.806326px"/><line x1="123.8" y1="11.99" x2="154.86" y2="74.94" style="fill:none;stroke:#000;stroke-miterlimit:10;stroke-width:0.806326px"/><line x1="128.53" y1="10.24" x2="159.6" y2="73.19" style="fill:none;stroke:#000;stroke-miterlimit:10;stroke-width:0.806326px"/><line x1="122.3" y1="13.24" x2="153.61" y2="76.07" style="fill:none;stroke:#000;stroke-miterlimit:10;stroke-width:0.806326px"/><line x1="126.82" y1="9.83" x2="155.56" y2="73.86" style="fill:none;stroke:#000;stroke-miterlimit:10;stroke-width:0.806326px"/><line x1="119.34" y1="14.38" x2="163.04" y2="69.31" style="fill:none;stroke:#000;stroke-miterlimit:10;stroke-width:0.806326px"/><line x1="155" y1="75.16" x2="84.94" y2="70.82" style="fill:none;stroke:#000;stroke-miterlimit:10;stroke-width:0.806326px"/><line x1="155.36" y1="68.93" x2="85.19" y2="71.01" style="fill:none;stroke:#000;stroke-miterlimit:10;stroke-width:0.806326px"/><line x1="154.76" y1="78.94" x2="84.71" y2="74.59" style="fill:none;stroke:#000;stroke-miterlimit:10;stroke-width:0.806326px"/><line x1="154.58" y1="74.26" x2="84.65" y2="68.16" style="fill:none;stroke:#000;stroke-miterlimit:10;stroke-width:0.806326px"/><line x1="154.71" y1="70.89" x2="84.52" y2="71.53" style="fill:none;stroke:#000;stroke-miterlimit:10;stroke-width:0.806326px"/><line x1="155.53" y1="74.54" x2="85.36" y2="76.28" style="fill:none;stroke:#000;stroke-miterlimit:10;stroke-width:0.806326px"/><line x1="155.06" y1="72.88" x2="84.87" y2="73.09" style="fill:none;stroke:#000;stroke-miterlimit:10;stroke-width:0.806326px"/><line x1="155.1" y1="79.77" x2="85.45" y2="71.09" style="fill:none;stroke:#000;stroke-miterlimit:10;stroke-width:0.806326px"/><line x1="155.14" y1="71.42" x2="85.41" y2="79.44" style="fill:none;stroke:#000;stroke-miterlimit:10;stroke-width:0.806326px"/><line x1="155.06" y1="75.85" x2="84.87" y2="76.7" style="fill:none;stroke:#000;stroke-miterlimit:10;stroke-width:0.806326px"/><line x1="155.14" y1="76.76" x2="84.95" y2="77.61" style="fill:none;stroke:#000;stroke-miterlimit:10;stroke-width:0.806326px"/><path d="M133.69,12.18a11.52,11.52,0,1,1-23,0c0-3.83,2.17-7.53,5-10C122.63-4,133.69,4.26,133.69,12.18Z" style="fill:#01a0b2"/><path d="M98.36,72.72a11.52,11.52,0,1,1-23,0c0-5.79,4.93-11.59,10.94-12C92.5,60.41,98.36,66.65,98.36,72.72Z" style="fill:#df3c4b"/><path d="M168.83,72.7a11.52,11.52,0,0,1-23,0C145.78,58.39,168.82,58.36,168.83,72.7Z" style="fill:#e18426"/><path d="M232.1,84.26l-24-46.75L183.85,84.26,150.31.4h19.53L186,43.94,208.09.29l22.05,43.65L246.69.4H266Z"/><path d="M296,34.52h40.09V50.25H296v34H277.72V.29h63.64V16H296Z"/><path d="M353.09,84.26V.29h18.15v84Z"/><path d="M425.71,16V84.26H407.45V16H383V.29h67.09V16Z"/><path d="M72.25,84.26c-6.78-9-14.47-19.07-21.71-28.14C61,51.63,67.66,41.64,67.66,29.46,67.66,12.23,55.37.29,37.33.29H0v84H18V16h19.3C48,16,49.62,25.1,49.62,29.46c0,8.73-6.66,12.87-12.29,12.87H30.46V58.08c6.89,9.18,13.2,17.56,20.09,26.17Z"/></g></g></svg>